<svg width="98" height="31" viewBox="0 0 98 31" fill="none" xmlns="http://www.w3.org/2000/svg">
<path d="M37.4219 26.161V4.05469H41.3769V26.161H37.4219Z" fill="black"/>
<path d="M75.3594 11.1363H79.1364V12.969C79.9384 11.5035 81.8134 10.709 83.4184 10.709C85.4124 10.709 87.0174 11.5949 87.7604 13.2126C88.9194 11.3799 90.4674 10.709 92.4004 10.709C95.1064 10.709 97.6934 12.3885 97.6934 16.4185V26.1589H93.8574V17.2435C93.8574 15.6249 93.0834 14.404 91.2694 14.404C89.5734 14.404 88.5624 15.7476 88.5624 17.3663V26.1599H84.6384V17.2435C84.6384 15.6249 83.8354 14.404 82.0504 14.404C80.3244 14.404 79.3134 15.7172 79.3134 17.3663V26.1599H75.3594V11.1363Z" fill="black"/>
<path d="M50.3148 26.5958C45.8598 26.5958 42.6328 23.2045 42.6328 18.6495C42.6328 14.1672 45.8488 10.6953 50.3148 10.6953C54.8028 10.6953 57.9968 14.1994 57.9968 18.6495C57.9968 23.1713 54.7688 26.5958 50.3148 26.5958ZM50.3148 14.3723C48.0168 14.3723 46.1478 16.291 46.1478 18.6505C46.1478 21.0099 48.0168 22.9286 50.3148 22.9286C52.6128 22.9286 54.4818 21.0099 54.4818 18.6505C54.4818 16.291 52.6128 14.3723 50.3148 14.3723Z" fill="black"/>
<path d="M66.4476 26.5958C61.9916 26.5958 58.7656 23.2045 58.7656 18.6495C58.7656 14.1672 61.9816 10.6953 66.4476 10.6953C70.9356 10.6953 74.1296 14.1994 74.1296 18.6495C74.1296 23.1713 70.8996 26.5958 66.4476 26.5958ZM66.4476 14.3213C64.1236 14.3213 62.2326 16.2632 62.2326 18.6486C62.2326 21.0341 64.1236 22.9761 66.4476 22.9761C68.7716 22.9761 70.6626 21.0341 70.6626 18.6486C70.6626 16.2632 68.7706 14.3213 66.4476 14.3213Z" fill="black"/>
<path d="M29.448 13.4292H20.837L28.295 9.01083L26.657 6.09913L19.2 10.5174L23.504 2.86523L20.667 1.18363L16.362 8.83583V0H13.086V8.83673L8.78 1.18363L5.944 2.86443L10.249 10.5166L2.791 6.09913L1.154 9.01003L8.611 13.4283H0V16.7899H8.61L1.154 21.2082L2.791 24.12L10.248 19.7024L5.943 27.3546L8.78 29.0354L13.086 21.3824V30.2191H16.361V21.3832L20.666 29.0354L23.503 27.3546L19.198 19.7016L26.655 24.12L28.293 21.2082L20.837 16.7907H29.447V13.4292H29.448ZM14.724 19.6812C12.254 19.6812 10.252 17.6269 10.252 15.0922C10.252 12.5575 12.254 10.5031 14.724 10.5031C17.194 10.5031 19.196 12.5575 19.196 15.0922C19.196 17.6269 17.194 19.6812 14.724 19.6812Z" fill="black"/>
</svg>
