<svg width="96" height="22" viewBox="0 0 96 22" fill="none" xmlns="http://www.w3.org/2000/svg">
<path d="M53.159 0.3247H59.04L56.081 21.4314H50.2L53.159 0.3247ZM45.744 0.3247L41.776 12.4835L40.044 0.3247H35.931L30.735 12.4474L30.086 0.3247H24.385L26.37 21.4314H31.096L36.941 8.0818L38.998 21.4314H43.652L51.337 0.3247H45.744ZM95.12 12.5917H81.157C81.229 15.334 82.871 17.1379 85.288 17.1379C87.11 17.1379 88.553 16.1637 89.672 14.3057L94.386 16.4488C92.766 19.6401 89.352 21.72 85.144 21.72C79.407 21.72 75.601 17.8594 75.601 11.6538C75.601 4.8347 80.074 0 86.388 0C91.945 0 95.444 3.7523 95.444 9.5972C95.444 10.5714 95.336 11.5456 95.12 12.5917ZM89.888 8.5509C89.888 6.0975 88.517 4.5461 86.316 4.5461C84.116 4.5461 82.167 6.1696 81.662 8.5509H89.888ZM6.00401 6.6856L0 13.7013H10.72L11.925 10.3927H7.332L10.139 7.1474L10.148 7.0608L8.322 3.9201H16.532L10.168 21.4314H14.523L22.208 0.3247H2.353L6.002 6.6856H6.00401ZM68.601 4.5461C70.676 4.5461 72.494 5.6609 74.081 7.5731L74.915 1.6236C73.435 0.6224 71.433 0 68.781 0C63.514 0 60.555 3.0848 60.555 6.9995C60.555 9.7145 62.071 11.3741 64.56 12.4474L65.751 12.9888C67.969 13.9358 68.565 14.4048 68.565 15.4062C68.565 16.4073 67.564 17.1019 66.039 17.1019C63.522 17.1108 61.484 15.821 59.951 13.6201L59.101 19.6833C60.847 21.0148 63.086 21.72 66.039 21.72C71.045 21.72 74.121 18.8336 74.121 14.8288C74.121 12.1047 72.912 10.3549 69.864 8.9839L68.565 8.3705C66.761 7.5677 66.148 7.1257 66.148 6.2418C66.148 5.2857 66.986 4.5461 68.601 4.5461Z" fill="black"/>
</svg>
