<svg width="111" height="31" viewBox="0 0 111 31" fill="none" xmlns="http://www.w3.org/2000/svg">
<mask id="mask0_769_684" style="mask-type:luminance" maskUnits="userSpaceOnUse" x="0" y="0" width="111" height="31">
<path d="M110.925 0H0V30.0813H110.925V0Z" fill="white"/>
</mask>
<g mask="url(#mask0_769_684)">
<path d="M34.5469 14.4608C34.5469 19.3791 37.7049 22.8084 42.0819 22.8084C46.4589 22.8084 49.6179 19.3791 49.6179 14.4608C49.6179 9.54248 46.4589 6.11328 42.0819 6.11328C37.7049 6.11328 34.5469 9.54248 34.5469 14.4608ZM46.7299 14.4608C46.7299 17.9804 44.8119 20.259 42.0819 20.259C39.3519 20.259 37.4349 17.9804 37.4349 14.4608C37.4349 10.9414 39.3519 8.66268 42.0819 8.66268C44.8119 8.66268 46.7299 10.9414 46.7299 14.4608Z" fill="black"/>
<path d="M57.7468 22.8105C61.0628 22.8105 62.9578 20.0129 62.9578 16.6514C62.9578 13.2898 61.0628 10.4922 57.7468 10.4922C56.2128 10.4922 55.0848 11.1014 54.3398 11.9812V10.7178H51.6328V26.6233H54.3398V21.3215C55.0848 22.2014 56.2128 22.8105 57.7468 22.8105ZM54.2718 16.3129C54.2718 14.0794 55.5358 12.8611 57.2048 12.8611C59.1678 12.8611 60.2288 14.3953 60.2288 16.6514C60.2288 18.9075 59.1678 20.4416 57.2048 20.4416C55.5358 20.4416 54.2718 19.2008 54.2718 17.0123V16.3129Z" fill="black"/>
<path d="M70.2842 22.8105C72.6532 22.8105 74.5262 21.5697 75.3612 19.494L73.0372 18.6142C72.6762 19.8325 71.6152 20.5093 70.2842 20.5093C68.5472 20.5093 67.3293 19.2684 67.1263 17.2379H75.4282V16.3355C75.4282 13.0867 73.6012 10.4922 70.1712 10.4922C66.7422 10.4922 64.5312 13.177 64.5312 16.6514C64.5312 20.3062 66.9002 22.8105 70.2842 22.8105ZM70.1492 12.7709C71.8642 12.7709 72.6762 13.8989 72.6982 15.2075H67.2612C67.6672 13.6056 68.7502 12.7709 70.1492 12.7709Z" fill="black"/>
<path d="M77.4609 22.5623H80.1679V15.6136C80.1679 13.9215 81.4089 13.019 82.6269 13.019C84.1159 13.019 84.7029 14.0794 84.7029 15.5459V22.5623H87.4099V14.7562C87.4099 12.2069 85.9209 10.4922 83.4399 10.4922C81.9049 10.4922 80.8449 11.1916 80.1679 11.9812V10.7178H77.4609V22.5623Z" fill="black"/>
<path d="M95.3401 6.36328L89.2031 22.5621H92.0681L93.4451 18.8621H100.438L101.837 22.5621H104.748L98.6111 6.36328H95.3401ZM96.9191 9.56698L99.4911 16.3353H94.3921L96.9191 9.56698Z" fill="black"/>
<path d="M109.396 6.41016H106.508V22.609H109.396V6.41016Z" fill="black"/>
<path d="M27.928 12.3119C28.61 10.2635 28.375 8.01967 27.284 6.15647C25.643 3.29877 22.343 1.82852 19.121 2.52039C17.687 0.9054 15.627 -0.0130205 13.468 0.000139512C10.174 -0.00738049 7.25201 2.11335 6.23801 5.24747C4.12201 5.68087 2.29571 7.00537 1.22681 8.88257C-0.426694 11.7328 -0.0496924 15.3256 2.15941 17.7697C1.47691 19.8181 1.71191 22.062 2.80331 23.9251C4.44501 26.7829 7.74401 28.2531 10.967 27.5612C12.399 29.1762 14.46 30.0947 16.619 30.0805C19.915 30.089 22.838 27.9664 23.852 24.8295C25.968 24.3961 27.794 23.0716 28.863 21.1943C30.515 18.3441 30.137 14.7541 27.929 12.31L27.928 12.3119ZM16.621 28.1149C15.302 28.1168 14.025 27.6552 13.012 26.8101C13.058 26.7857 13.138 26.7415 13.19 26.7095L19.18 23.2502C19.486 23.0763 19.674 22.7501 19.672 22.3976V13.9532L22.204 15.4149C22.231 15.4281 22.249 15.4544 22.253 15.4845V22.4775C22.249 25.5872 19.731 28.1083 16.621 28.1149ZM4.50901 22.9419C3.84901 21.8007 3.611 20.463 3.837 19.1648C3.882 19.1911 3.96001 19.239 4.01501 19.271L10.005 22.7304C10.309 22.908 10.685 22.908 10.989 22.7304L18.302 18.5077V21.4312C18.304 21.4613 18.29 21.4904 18.266 21.5092L12.211 25.0053C9.51401 26.5582 6.06901 25.6351 4.50901 22.9419ZM2.93301 9.86677C3.59101 8.72377 4.63 7.84947 5.867 7.39547C5.867 7.44717 5.86401 7.53837 5.86401 7.60227V14.5219C5.86201 14.8735 6.05001 15.1997 6.35601 15.3736L13.668 19.5953L11.137 21.0571C11.111 21.074 11.079 21.0768 11.051 21.0646L4.99501 17.5658C2.30411 16.0072 1.38101 12.5638 2.93211 9.86777L2.93301 9.86677ZM23.732 14.7071L16.42 10.4844L18.951 9.02357C18.977 9.00667 19.009 9.00387 19.037 9.01607L25.093 12.5121C27.789 14.0698 28.713 17.5188 27.155 20.2148C26.496 21.356 25.458 22.2303 24.222 22.6852V15.5588C24.225 15.2072 24.037 14.8819 23.732 14.7071ZM26.252 10.915C26.207 10.8877 26.129 10.8407 26.074 10.8087L20.084 7.34937C19.78 7.17167 19.404 7.17167 19.1 7.34937L11.787 11.5721V8.64857C11.785 8.61847 11.799 8.58927 11.823 8.57047L17.878 5.07727C20.575 3.52157 24.023 4.44747 25.578 7.14537C26.235 8.28467 26.473 9.61867 26.25 10.915H26.252ZM10.411 16.1256L7.879 14.6639C7.851 14.6507 7.83301 14.6244 7.83001 14.5943V7.60127C7.83201 4.48787 10.357 1.96483 13.471 1.96671C14.788 1.96671 16.063 2.42921 17.075 3.27147C17.029 3.29587 16.95 3.34007 16.897 3.37207L10.907 6.83147C10.601 7.00537 10.413 7.33057 10.415 7.68307L10.411 16.1238V16.1256ZM11.786 13.1607L15.044 11.2797L18.301 13.1598V16.9209L15.044 18.801L11.786 16.9209V13.1607Z" fill="black"/>
</g>
</svg>
