<svg width="132" height="20" viewBox="0 0 132 20" fill="none" xmlns="http://www.w3.org/2000/svg">
<path d="M61.9812 1.06346L61.9532 1.06946C60.9332 1.29966 60.4162 1.64296 60.4162 2.88116H60.4112L60.4162 17.7355C60.5032 18.7134 61.0292 19.0153 61.9532 19.2239L61.9812 19.2302V19.4404H54.8642V19.2302L54.8912 19.2239C55.8152 19.0153 56.3282 18.7134 56.4152 17.7355V3.28456L49.5562 19.4071H49.1782L42.5132 3.72196V17.3774C42.5132 18.6156 43.0312 18.959 44.0512 19.1892L44.0782 19.1952V19.4071H39.9922V19.1945L40.0192 19.1885C41.0392 18.9583 41.5592 18.6149 41.5592 17.3768V2.88116C41.5592 1.64296 41.0412 1.29966 40.0212 1.06946L39.9942 1.06346V0.851562H46.0162L51.2042 13.0466L56.3932 0.851562H61.9812V1.06346Z" fill="black"/>
<path fill-rule="evenodd" clip-rule="evenodd" d="M73.4759 11.4102H65.1349L65.1339 11.4108C64.9719 14.2695 66.7549 16.6295 69.0819 16.8037C70.7869 16.9311 72.2859 15.8861 73.1199 14.1618L73.3589 14.2462C72.8849 17.4546 70.9809 19.8449 67.7109 19.8449C63.9859 19.8449 61.8879 16.742 61.7979 12.8592C61.7959 12.7091 61.7969 12.5599 61.7999 12.4118C61.8019 12.3194 61.8049 12.2273 61.8099 12.1355C61.8129 12.0864 61.8149 12.0405 61.8189 11.9891C61.8219 11.9377 61.8259 11.8863 61.8299 11.8349C61.9639 10.1206 62.5159 8.5951 63.4269 7.4664C63.9929 6.7657 64.6729 6.2319 65.4439 5.8749C66.1209 5.5339 67.0729 5.3457 67.8489 5.3457H67.8829C69.3779 5.3457 70.8019 5.8515 71.7629 6.7707C72.8749 7.8344 73.4519 9.3835 73.4759 11.3751V11.4102ZM67.8269 6.1594C66.2569 6.1918 65.3219 8.0717 65.2049 10.6761H69.9689C70.0179 8.6432 69.7029 7.2829 69.0319 6.6319C68.7169 6.3263 68.3099 6.1675 67.8269 6.1594Z" fill="black"/>
<path fill-rule="evenodd" clip-rule="evenodd" d="M86.9059 17.3133C86.9059 18.6145 87.4239 18.9739 88.4429 19.2151L88.4699 19.2204V19.4426H82.9099V17.2973C82.2729 18.8955 80.8819 19.843 79.1519 19.843C76.1969 19.843 74.2099 17.1311 74.2109 13.0962C74.2109 10.8371 74.8599 8.8892 76.0889 7.4638C77.2679 6.0962 78.9029 5.3432 80.6909 5.3432C81.5719 5.3432 82.2989 5.533 82.9099 5.923V3.5494C82.9099 3.0236 82.7819 2.6499 82.5179 2.4064C82.1809 2.0954 81.6019 1.9773 80.7469 2.0463L80.7089 2.0493V1.8258L86.9059 0V17.3133ZM81.3009 17.676C82.0659 17.676 82.6369 17.319 82.9099 16.67V7.1095C82.6399 6.4866 82.0729 6.1296 81.3539 6.1296C79.6349 6.1296 78.5249 8.4388 78.5249 12.0089C78.5249 13.7242 78.8049 15.1722 79.3399 16.1966C79.8359 17.1508 80.5349 17.676 81.3009 17.676Z" fill="black"/>
<path d="M91.5485 0.146484C92.8085 0.146484 93.7585 1.09668 93.7585 2.35658C93.7585 3.61648 92.8085 4.56668 91.5485 4.56668C90.2955 4.56668 89.3125 3.59578 89.3125 2.35658C89.3125 1.11738 90.2945 0.146484 91.5485 0.146484Z" fill="black"/>
<path d="M93.6822 17.3139C93.6822 18.6151 94.1992 18.9744 95.2202 19.2157L95.2482 19.221V19.4432H89.6832V9.12867C89.6832 7.72267 89.3542 7.30826 88.1502 7.20116L88.1172 7.19817V6.98127L93.6772 5.38477V17.3139H93.6822Z" fill="black"/>
<path d="M107.932 17.3139C107.932 18.6151 108.449 18.9744 109.469 19.2157L109.495 19.2247V19.4469H103.936V17.2448C103.304 18.8303 101.869 19.8436 100.232 19.8436C98.2995 19.8436 97.0655 18.9614 96.5945 17.2745L96.4955 16.8391C96.4155 16.4008 96.3765 15.956 96.3795 15.5104V9.12867C96.3795 7.72227 96.0495 7.30786 94.8465 7.20116L94.8125 7.19817V6.98157L100.374 5.38507V15.4054C100.374 16.8878 101.04 17.7042 102.249 17.7042C102.994 17.6782 103.609 17.2928 103.937 16.6439V9.10327C103.937 7.69097 103.653 7.25286 102.669 7.14936L102.638 7.14606V6.92857L107.932 5.38477V17.3139Z" fill="black"/>
<path d="M131.075 19.2227V19.4452H125.515V9.545C125.515 7.9445 124.946 7.1668 123.773 7.1668C122.805 7.1668 122.307 7.8684 122.06 8.4613C122.11 8.7665 122.135 9.0755 122.133 9.3849V17.6595C122.133 18.6304 122.418 19.0088 123.301 19.2163L123.328 19.223V19.4452H118.139V9.545C118.139 7.9675 117.553 7.1668 116.397 7.1668C115.466 7.1668 114.995 7.813 114.762 8.3586V17.6595C114.762 18.6304 115.047 19.0088 115.93 19.2163L115.957 19.223V19.4452H110.769V9.0419C110.769 7.6719 110.425 7.2455 109.237 7.14L109.203 7.137V6.9189L114.764 5.3877V7.7189C115.326 6.2282 116.636 5.3457 118.309 5.3457C120.213 5.3457 121.5 6.2552 121.947 7.9101C122.51 6.3483 123.974 5.3457 125.709 5.3457C128.089 5.3457 129.51 6.8558 129.51 9.3859V17.5003C129.51 18.4799 129.941 18.9611 131.048 19.2163L131.075 19.2227Z" fill="black"/>
<path d="M9.8255 20.0034C15.2521 20.0034 19.6511 15.5738 19.6511 10.1099C19.6511 4.646 15.2521 0.216797 9.8255 0.216797C4.3991 0.216797 0 4.6447 0 10.1099C0 15.5752 4.3988 20.0034 9.8255 20.0034Z" fill="black"/>
<path d="M25.5146 19.4228C28.2286 19.4228 30.4276 15.2534 30.4276 10.1099C30.4276 4.96757 28.2286 0.796875 25.5146 0.796875C22.8016 0.796875 20.6016 4.96757 20.6016 10.1099C20.6016 15.2521 22.8016 19.4228 25.5146 19.4228Z" fill="black"/>
<path d="M34.8388 10.1077C34.8388 14.7161 34.0648 18.4517 33.1108 18.4517C32.1558 18.4517 31.3828 14.7147 31.3828 10.1077C31.3828 5.50057 32.1558 1.76367 33.1108 1.76367C34.0658 1.76367 34.8388 5.49957 34.8388 10.1077Z" fill="black"/>
</svg>
