<svg width="73" height="30" viewBox="0 0 73 30" fill="none" xmlns="http://www.w3.org/2000/svg">
<path fill-rule="evenodd" clip-rule="evenodd" d="M72.098 15.5006C72.098 10.3738 69.615 6.32841 64.868 6.32841C60.102 6.32841 57.218 10.3738 57.218 15.4606C57.218 21.4886 60.623 24.5327 65.509 24.5327C67.892 24.5327 69.695 23.992 71.057 23.2309V19.2256C69.695 19.9065 68.133 20.3271 66.15 20.3271C64.207 20.3271 62.485 19.6462 62.265 17.283H72.058C72.058 17.0227 72.098 15.9813 72.098 15.5006ZM62.205 13.5981C62.205 11.3351 63.587 10.3938 64.848 10.3938C66.07 10.3938 67.372 11.3351 67.372 13.5981H62.205ZM49.487 6.32841C47.525 6.32841 46.263 7.24961 45.562 7.89051L45.302 6.64881H40.896V30L45.902 28.9386L45.922 23.271C46.643 23.7917 47.705 24.5327 49.467 24.5327C53.052 24.5327 56.317 21.6488 56.317 15.3004C56.297 9.49261 52.992 6.32841 49.487 6.32841ZM48.286 20.1268C47.104 20.1268 46.403 19.7063 45.922 19.1856L45.902 11.7556C46.423 11.1749 47.144 10.7743 48.286 10.7743C50.108 10.7743 51.37 12.8171 51.37 15.4406C51.37 18.1241 50.128 20.1268 48.286 20.1268ZM34.006 5.14681L39.033 4.06541V0L34.006 1.0614V5.14681ZM34.006 6.66891H39.033V24.1922H34.006V6.66891ZM28.619 8.15081L28.298 6.66891H23.972V24.1922H28.979V12.3164C30.161 10.7743 32.164 11.0547 32.785 11.275V6.66891C32.144 6.42851 29.8 5.98801 28.619 8.15081ZM18.605 2.3231L13.718 3.36451L13.698 19.4058C13.698 22.3698 15.921 24.5527 18.886 24.5527C20.528 24.5527 21.729 24.2523 22.39 23.8918V19.8264C21.749 20.0868 18.585 21.008 18.585 18.044V10.9346H22.39V6.66891H18.585L18.605 2.3231ZM5.06699 11.7556C5.06699 10.9746 5.708 10.6742 6.769 10.6742C8.291 10.6742 10.214 11.1348 11.736 11.9559V7.24961C10.074 6.58881 8.431 6.32841 6.769 6.32841C2.704 6.32841 0 8.45121 0 11.996C0 17.5233 7.60999 16.6422 7.60999 19.0253C7.60999 19.9466 6.809 20.247 5.688 20.247C4.025 20.247 1.90199 19.5661 0.219994 18.6448V23.4112C2.08299 24.2123 3.965 24.5527 5.688 24.5527C9.853 24.5527 12.717 22.49 12.717 18.9052C12.697 12.9372 5.06699 13.9986 5.06699 11.7556Z" fill="black"/>
</svg>
